<?xml version="1.0" encoding="UTF-8"?>
<svg xmlns="http://www.w3.org/2000/svg" xmlns:xlink="http://www.w3.org/1999/xlink" viewBox="0 0 36 36" version="1.1">
<g id="surface1">
<path style=" stroke:none;fill-rule:nonzero;fill:rgb(17.647059%,75.686276%,0%);fill-opacity:1;" d="M 36 30.601562 C 36 33.582031 33.582031 36 30.601562 36 L 5.398438 36 C 2.417969 36 0 33.582031 0 30.601562 L 0 5.398438 C 0 2.417969 2.417969 0 5.398438 0 L 30.601562 0 C 33.582031 0 36 2.417969 36 5.398438 Z M 36 30.601562 "/>
<path style=" stroke:none;fill-rule:nonzero;fill:rgb(100%,100%,100%);fill-opacity:1;" d="M 24.097656 13.425781 C 21.191406 13.578125 18.664062 14.457031 16.613281 16.449219 C 14.539062 18.457031 13.59375 20.921875 13.851562 23.976562 C 12.71875 23.835938 11.683594 23.679688 10.640625 23.59375 C 10.285156 23.5625 9.855469 23.605469 9.550781 23.777344 C 8.542969 24.347656 7.574219 24.992188 6.425781 25.707031 C 6.636719 24.757812 6.773438 23.921875 7.015625 23.121094 C 7.191406 22.53125 7.109375 22.203125 6.566406 21.816406 C 3.078125 19.355469 1.609375 15.671875 2.707031 11.875 C 3.726562 8.367188 6.226562 6.238281 9.625 5.128906 C 14.257812 3.613281 19.46875 5.15625 22.289062 8.839844 C 23.308594 10.167969 23.929688 11.660156 24.097656 13.425781 Z M 10.722656 12.242188 C 10.75 11.550781 10.148438 10.925781 9.433594 10.902344 C 8.703125 10.882812 8.101562 11.441406 8.082031 12.160156 C 8.058594 12.890625 8.617188 13.476562 9.355469 13.496094 C 10.085938 13.515625 10.695312 12.953125 10.722656 12.242188 Z M 17.699219 10.902344 C 16.984375 10.917969 16.378906 11.527344 16.390625 12.222656 C 16.402344 12.945312 17 13.511719 17.734375 13.5 C 18.472656 13.492188 19.035156 12.921875 19.027344 12.183594 C 19.023438 11.460938 18.429688 10.890625 17.699219 10.902344 Z M 17.699219 10.902344 "/>
<path style=" stroke:none;fill-rule:nonzero;fill:rgb(100%,100%,100%);fill-opacity:1;" d="M 30.625 31.539062 C 29.703125 31.128906 28.859375 30.515625 27.960938 30.421875 C 27.066406 30.328125 26.125 30.84375 25.1875 30.941406 C 22.335938 31.230469 19.78125 30.4375 17.675781 28.488281 C 13.667969 24.78125 14.238281 19.097656 18.875 16.058594 C 22.996094 13.359375 29.039062 14.261719 31.945312 18.007812 C 34.480469 21.273438 34.183594 25.613281 31.085938 28.359375 C 30.191406 29.15625 29.871094 29.808594 30.445312 30.855469 C 30.550781 31.050781 30.5625 31.296875 30.625 31.539062 Z M 20.152344 21.398438 C 20.738281 21.398438 21.21875 20.941406 21.242188 20.363281 C 21.265625 19.75 20.773438 19.238281 20.160156 19.234375 C 19.550781 19.230469 19.042969 19.753906 19.0625 20.355469 C 19.085938 20.933594 19.570312 21.398438 20.152344 21.398438 Z M 26.902344 19.238281 C 26.335938 19.234375 25.851562 19.699219 25.828125 20.273438 C 25.804688 20.886719 26.28125 21.390625 26.886719 21.390625 C 27.476562 21.394531 27.941406 20.949219 27.960938 20.363281 C 27.984375 19.75 27.507812 19.242188 26.902344 19.238281 Z M 26.902344 19.238281 "/>
</g>
</svg>
